name ./resultDataOpenSim/trcMotMarkerGrf/sub09/grf-02-02.mot
datacolumns 19
datarows 20
range 1.45200000 1.52800000
endheader

                time	     ground_force_vx	     ground_force_vy	     ground_force_vz	     ground_force_px	     ground_force_py	     ground_force_pz	   l_ground_force_vx	   l_ground_force_vy	   l_ground_force_vz	   l_ground_force_px	   l_ground_force_py	   l_ground_force_pz	     ground_torque_x	     ground_torque_y	     ground_torque_z	   l_ground_torque_x	   l_ground_torque_y	   l_ground_torque_z	
          1.45200000	        -29.40684573	        449.54447405	        -23.91974094	          0.92977201	          0.00000000	          0.10659910	          0.00000000	          0.00000000	          0.00000000	          0.00000000	          0.00000000	          0.00000000	          0.00000000	          3.51377375	          0.00000000	          0.00000000	          0.00000000	          0.00000000	
          1.45600000	        -25.92431102	        446.04163998	        -23.08203720	          0.93216840	          0.00000000	          0.10658145	          0.00000000	          0.00000000	          0.00000000	          0.00000000	          0.00000000	          0.00000000	          0.00000000	          3.51148688	          0.00000000	          0.00000000	          0.00000000	          0.00000000	
          1.46000000	        -22.62554906	        443.36388486	        -20.81715982	          0.93441941	          0.00000000	          0.10649202	          0.00000000	          0.00000000	          0.00000000	          0.00000000	          0.00000000	          0.00000000	          0.00000000	          3.51389621	          0.00000000	          0.00000000	          0.00000000	          0.00000000	
          1.46400000	        -20.23335706	        441.53830251	        -17.36642747	          0.93662955	          0.00000000	          0.10634027	          0.00000000	          0.00000000	          0.00000000	          0.00000000	          0.00000000	          0.00000000	          0.00000000	          3.55347097	          0.00000000	          0.00000000	          0.00000000	          0.00000000	
          1.46800000	        -19.19841721	        440.55511066	        -13.18729298	          0.93889633	          0.00000000	          0.10614565	          0.00000000	          0.00000000	          0.00000000	          0.00000000	          0.00000000	          0.00000000	          0.00000000	          3.64948617	          0.00000000	          0.00000000	          0.00000000	          0.00000000	
          1.47200000	        -19.58041645	        440.36690677	         -8.86619249	          0.94124982	          0.00000000	          0.10592405	          0.00000000	          0.00000000	          0.00000000	          0.00000000	          0.00000000	          0.00000000	          0.00000000	          3.80182542	          0.00000000	          0.00000000	          0.00000000	          0.00000000	
          1.47600000	        -21.03899337	        440.87368227	         -5.02444860	          0.94365834	          0.00000000	          0.10570326	          0.00000000	          0.00000000	          0.00000000	          0.00000000	          0.00000000	          0.00000000	          0.00000000	          3.98959023	          0.00000000	          0.00000000	          0.00000000	          0.00000000	
          1.48000000	        -22.93238619	        441.92455589	         -2.22226158	          0.94603595	          0.00000000	          0.10552828	          0.00000000	          0.00000000	          0.00000000	          0.00000000	          0.00000000	          0.00000000	          0.00000000	          4.17563512	          0.00000000	          0.00000000	          0.00000000	          0.00000000	
          1.48400000	        -24.49551626	        443.35745579	         -0.86723780	          0.94827650	          0.00000000	          0.10543806	          0.00000000	          0.00000000	          0.00000000	          0.00000000	          0.00000000	          0.00000000	          0.00000000	          4.31656830	          0.00000000	          0.00000000	          0.00000000	          0.00000000	
          1.48800000	        -25.06033832	        445.04712664	         -1.14072284	          0.95029581	          0.00000000	          0.10545841	          0.00000000	          0.00000000	          0.00000000	          0.00000000	          0.00000000	          0.00000000	          0.00000000	          4.37563485	          0.00000000	          0.00000000	          0.00000000	          0.00000000	
          1.49200000	        -24.25680580	        446.92273417	         -2.96002826	          0.95204381	          0.00000000	          0.10559425	          0.00000000	          0.00000000	          0.00000000	          0.00000000	          0.00000000	          0.00000000	          0.00000000	          4.33430112	          0.00000000	          0.00000000	          0.00000000	          0.00000000	
          1.49600000	        -22.11505169	        448.95978857	         -5.99613896	          0.95353869	          0.00000000	          0.10584251	          0.00000000	          0.00000000	          0.00000000	          0.00000000	          0.00000000	          0.00000000	          0.00000000	          4.19846076	          0.00000000	          0.00000000	          0.00000000	          0.00000000	
          1.50000000	        -19.03724280	        451.17547183	         -9.74245232	          0.95485463	          0.00000000	          0.10618296	          0.00000000	          0.00000000	          0.00000000	          0.00000000	          0.00000000	          0.00000000	          0.00000000	          3.99722501	          0.00000000	          0.00000000	          0.00000000	          0.00000000	
          1.50400000	        -15.67481457	        453.62384883	        -13.61334581	          0.95607117	          0.00000000	          0.10656971	          0.00000000	          0.00000000	          0.00000000	          0.00000000	          0.00000000	          0.00000000	          0.00000000	          3.77514704	          0.00000000	          0.00000000	          0.00000000	          0.00000000	
          1.50800000	        -12.75028567	        456.37867417	        -17.05254132	          0.95729777	          0.00000000	          0.10695474	          0.00000000	          0.00000000	          0.00000000	          0.00000000	          0.00000000	          0.00000000	          0.00000000	          3.58089235	          0.00000000	          0.00000000	          0.00000000	          0.00000000	
          1.51200000	        -10.85223560	        459.51599883	        -19.62382733	          0.95862263	          0.00000000	          0.10729641	          0.00000000	          0.00000000	          0.00000000	          0.00000000	          0.00000000	          0.00000000	          0.00000000	          3.45591474	          0.00000000	          0.00000000	          0.00000000	          0.00000000	
          1.51600000	        -10.25863277	        463.09647933	        -21.06845762	          0.96007498	          0.00000000	          0.10756005	          0.00000000	          0.00000000	          0.00000000	          0.00000000	          0.00000000	          0.00000000	          0.00000000	          3.42583090	          0.00000000	          0.00000000	          0.00000000	          0.00000000	
          1.52000000	        -10.85459597	        467.14374643	        -21.33601172	          0.96160866	          0.00000000	          0.10773313	          0.00000000	          0.00000000	          0.00000000	          0.00000000	          0.00000000	          0.00000000	          0.00000000	          3.49582184	          0.00000000	          0.00000000	          0.00000000	          0.00000000	
          1.52400000	        -12.17046427	        471.63718240	        -20.58668636	          0.96312941	          0.00000000	          0.10782379	          0.00000000	          0.00000000	          0.00000000	          0.00000000	          0.00000000	          0.00000000	          0.00000000	          3.65036932	          0.00000000	          0.00000000	          0.00000000	          0.00000000	
          1.52800000	        -13.51288040	        476.52654073	        -19.15436215	          0.96452336	          0.00000000	          0.10785371	          0.00000000	          0.00000000	          0.00000000	          0.00000000	          0.00000000	          0.00000000	          0.00000000	          3.85711504	          0.00000000	          0.00000000	          0.00000000	          0.00000000	
